<svg width="17" height="16" viewBox="0 0 17 16" fill="none" xmlns="http://www.w3.org/2000/svg">
<path d="M14 4.5L2.90625 15.625C2.65625 15.875 2.35917 16 2.015 16C1.67167 16 1.375 15.875 1.125 15.625C0.875 15.375 0.75 15.0779 0.75 14.7337C0.75 14.3904 0.875 14.0938 1.125 13.8438L12.25 2.75H2.75C2.39583 2.75 2.09875 2.63042 1.85875 2.39125C1.61958 2.15125 1.5 1.85417 1.5 1.5C1.5 1.14583 1.61958 0.84875 1.85875 0.60875C2.09875 0.369584 2.39583 0.25 2.75 0.25H15.25C15.6042 0.25 15.9008 0.369584 16.14 0.60875C16.38 0.84875 16.5 1.14583 16.5 1.5V14C16.5 14.3542 16.38 14.6508 16.14 14.89C15.9008 15.13 15.6042 15.25 15.25 15.25C14.8958 15.25 14.5992 15.13 14.36 14.89C14.12 14.6508 14 14.3542 14 14V4.5Z" fill="white"/>
</svg>
