<svg width="32" height="25" viewBox="0 0 32 25" fill="none" xmlns="http://www.w3.org/2000/svg">
<g clip-path="url(#clip0_130_82)">
<path d="M7.27275 24.0062V11.6425L3.43837 8.13461L0 6.18799V21.8244C0 23.0316 0.978125 24.0062 2.18187 24.0062H7.27275Z" fill="#4285F4"/>
<path d="M24.7271 24.0064H29.8179C31.0253 24.0064 31.9998 23.0281 31.9998 21.8245V6.18823L28.1053 8.41786L24.7271 11.6426V24.0064Z" fill="#34A853"/>
<path d="M7.27273 11.6425L6.75098 6.81161L7.27273 2.18799L16 8.73349L24.7272 2.18799L25.3109 6.56199L24.7272 11.6425L16 18.188L7.27273 11.6425Z" fill="#EA4335"/>
<path d="M24.7271 2.18796V11.6425L31.9998 6.18796V3.27884C31.9998 0.580712 28.9198 -0.957414 26.7636 0.660711L24.7271 2.18796Z" fill="#FBBC04"/>
<path d="M0 6.18802L3.34488 8.69677L7.27275 11.6425V2.18802L5.23625 0.660769C3.07625 -0.957481 0 0.580769 0 3.27877V6.18802Z" fill="#C5221F"/>
</g>
<defs>
<clipPath id="clip0_130_82">
<rect width="32" height="24.125" fill="white"/>
</clipPath>
</defs>
</svg>
