<svg width="32" height="32" viewBox="0 0 32 32" fill="none" xmlns="http://www.w3.org/2000/svg">
<path d="M29.6393 0.000121181H2.36066C1.74172 -0.00617778 1.14557 0.233313 0.703 0.666044C0.260435 1.09877 0.00760951 1.6894 0 2.30832V29.6972C0.00898566 30.3152 0.262416 30.9045 0.704831 31.3361C1.14725 31.7677 1.74262 32.0064 2.36066 32.0001H29.6393C30.2583 32.005 30.8541 31.7647 31.2964 31.3317C31.7387 30.8987 31.9917 30.3082 32 29.6893V2.30045C31.989 1.68334 31.7348 1.09554 31.2928 0.664792C30.8507 0.234048 30.2565 -0.00481565 29.6393 0.000121181Z" fill="#0076B2"/>
<path d="M4.73708 11.995H9.48724V27.2789H4.73708V11.995ZM7.11347 4.38843C7.6583 4.38843 8.19088 4.55002 8.64384 4.85276C9.09681 5.1555 9.44981 5.58579 9.65818 6.08918C9.86655 6.59258 9.92094 7.14647 9.81446 7.68079C9.70798 8.2151 9.44542 8.70583 9.05999 9.0909C8.67456 9.47596 8.18358 9.73805 7.64916 9.84402C7.11475 9.95 6.56091 9.89508 6.05771 9.68623C5.55451 9.47737 5.12456 9.12397 4.82225 8.67071C4.51994 8.21746 4.35886 7.68472 4.35938 7.1399C4.36007 6.40993 4.65054 5.71008 5.16696 5.19416C5.68338 4.67823 6.3835 4.38843 7.11347 4.38843ZM12.4669 11.995H17.0204V14.0933H17.0833C17.7181 12.892 19.2656 11.6251 21.5764 11.6251C26.3869 11.6147 27.2787 14.7806 27.2787 18.8855V27.2789H22.5286V19.8429C22.5286 18.0724 22.4971 15.793 20.0604 15.793C17.6236 15.793 17.2092 17.7235 17.2092 19.7274V27.2789H12.4669V11.995Z" fill="white"/>
</svg>
