<svg width="32" height="35" viewBox="0 0 32 35" fill="none" xmlns="http://www.w3.org/2000/svg">
<path d="M4.6 18C3.34667 17.9467 2.36 17.64 1.64 17.08C0.92 16.52 0.56 15.6733 0.56 14.54V11.12C0.56 8.42667 1.92 7.08 4.64 7.08C7.33333 7.08 8.68 8.39333 8.68 11.02V14.2C8.68 15.1067 9.14 15.56 10.06 15.56H10.92C11.8267 15.56 12.28 15.1067 12.28 14.2V11.12C12.28 8.42667 13.64 7.08 16.36 7.08C19.0533 7.08 20.4 8.39333 20.4 11.02V18H17.78V11C17.78 10.0533 17.3067 9.58 16.36 9.58C15.3867 9.58 14.9 10.0733 14.9 11.06V14.26C14.9 16.7533 13.54 18 10.82 18H10.18C7.44667 18 6.08 16.7533 6.08 14.26V11C6.08 10.0533 5.6 9.58 4.64 9.58C3.66667 9.58 3.18 10.0733 3.18 11.06V14.44C3.18 15.4133 3.78 15.98 4.98 16.14L4.6 18Z" fill="#3B3030"/>
<path d="M10.5794 2.42C10.2994 2.42 10.0794 2.32667 9.91937 2.14C9.75937 1.94 9.67937 1.73333 9.67937 1.52C9.67937 1.24 9.77937 1.02 9.97937 0.859999C10.166 0.699999 10.366 0.619999 10.5794 0.619999C10.8194 0.619999 11.0327 0.706665 11.2194 0.879999C11.406 1.05333 11.4994 1.26667 11.4994 1.52C11.4994 1.74667 11.4127 1.95333 11.2394 2.14C11.066 2.32667 10.846 2.42 10.5794 2.42ZM9.37937 4.5C9.12604 4.5 8.91271 4.41333 8.73937 4.24C8.55271 4.06667 8.45937 3.85333 8.45937 3.6C8.45937 3.34667 8.55271 3.14 8.73937 2.98C8.91271 2.80667 9.12604 2.72 9.37937 2.72C9.64604 2.72 9.86604 2.82 10.0394 3.02C10.1994 3.20667 10.2794 3.4 10.2794 3.6C10.2794 3.85333 10.1927 4.06667 10.0194 4.24C9.83271 4.41333 9.61937 4.5 9.37937 4.5ZM11.7994 4.5C11.546 4.5 11.3327 4.41333 11.1594 4.24C10.986 4.06667 10.8994 3.85333 10.8994 3.6C10.8994 3.36 10.986 3.15333 11.1594 2.98C11.3327 2.80667 11.546 2.72 11.7994 2.72C12.0794 2.72 12.306 2.81333 12.4794 3C12.6394 3.18667 12.7194 3.38667 12.7194 3.6C12.7194 3.85333 12.6327 4.06667 12.4594 4.24C12.2727 4.41333 12.0527 4.5 11.7994 4.5Z" fill="black"/>
<path d="M18.4828 34.38C17.6028 34.38 16.8161 34.2733 16.1228 34.06C15.4161 33.8467 14.8561 33.5133 14.4428 33.06C14.0295 32.6067 13.8228 32.0133 13.8228 31.28C13.8228 28.9867 15.6561 27.4133 19.3228 26.56L20.0428 28.62C18.8695 28.98 18.0095 29.3333 17.4628 29.68C16.9028 30.0267 16.6228 30.4067 16.6228 30.82C16.6228 31.4733 17.2428 31.8 18.4828 31.8C19.3495 31.8 20.0961 31.7067 20.7228 31.52C21.3361 31.3333 21.8095 31.0067 22.1428 30.54C22.4761 30.0733 22.6428 29.4267 22.6428 28.6V11.12C22.6428 8.42667 23.8695 7.08 26.3228 7.08C28.7628 7.08 29.9828 8.39333 29.9828 11.02V30.32C29.9828 31.6 30.6028 32.24 31.8428 32.24V34.38C28.8561 34.38 27.3628 32.8867 27.3628 29.9V11C27.3628 10.0533 27.0161 9.58 26.3228 9.58C25.6028 9.58 25.2428 10.0733 25.2428 11.06V28.52C25.2428 30.5867 24.6495 32.08 23.4628 33C22.2895 33.92 20.6295 34.38 18.4828 34.38Z" fill="#795757"/>
</svg>
